# xmcd CD database file
#
# Track frame offsets:
#	150
#	34215
#	60483
#	80563
#	121579
#	162471
#	212001
#	239977
#	268651
#	300593
#
# Disc length: 4420 seconds
#
# Revision: 0
# Processed by: cddbd v1.5.2PL0 Copyright (c) Steve Scherf et al.
# Submitted via: CDex 1.51
#
DISCID=8911420a
DTITLE=Joshua Redman - Beyond
DYEAR=2000
DGENRE=Jazz
TTITLE0=Courage
TTITLE1=Belonging
TTITLE2=Neverend
TTITLE3=Leap of Faith
TTITLE4=Balance
TTITLE5=Twilight...And Beyond
TTITLE6=Stoic Revolutions
TTITLE7=Suspended Emanations
TTITLE8=Last Rites of Rock 'N' Roll
TTITLE9=A Life?
EXTD=YEAR: 2000
EXTT0=
EXTT1=
EXTT2=
EXTT3=
EXTT4=
EXTT5=
EXTT6=
EXTT7=
EXTT8=
EXTT9=
PLAYORDER=
